<svg width="179" height="119" viewBox="0 0 179 119" fill="none" xmlns="http://www.w3.org/2000/svg">
<path d="M3 72.5L1 66.5L49 87L55 73.5L57 79.5L51 93L3 72.5Z" fill="#4B4B81"/>
<path d="M55 42L17 58L25.5 61.5L57 48L55 42Z" fill="#4B4B81"/>
<path d="M49 29L55 42L17 58L55 73.5L49 87L1 66.5V50L49 29Z" fill="#BABAF6"/>
<path d="M86.5 112L70 108L98.5 1L114.5 4.5L86.5 112Z" fill="#BABAF6"/>
<path d="M73 114L70 108L86.5 112L114.5 4.5L117.5 10.5L89.5 118L73 114Z" fill="#4B4B81"/>
<path d="M130 93L127 88L175 67V50.5L178 55.5V72L130 93Z" fill="#4B4B81"/>
<path d="M124 48.5L121 43.5L159 59L154.5 60.9L124 48.5Z" fill="#4B4B81"/>
<path d="M127 88L121 75L159 59L121 43.5L127 30L175 50.5L175 67L127 88Z" fill="#BABAF6"/>
</svg>
