<svg width="200" height="200" viewBox="0 0 200 200" fill="none" xmlns="http://www.w3.org/2000/svg">
<rect x="5" y="7" width="190" height="190" rx="20" fill="#262626"/>
<path d="M13 113.5L11 107.5L59 128L65 114.5L67 120.5L61 134L13 113.5Z" fill="#4B4B81"/>
<path d="M65 83L27 99L35.5 102.5L67 89L65 83Z" fill="#4B4B81"/>
<path d="M59 70L65 83L27 99L65 114.5L59 128L11 107.5V91L59 70Z" fill="#BABAF6"/>
<path d="M96.5 153L80 149L108.5 42L124.5 45.5L96.5 153Z" fill="#BABAF6"/>
<path d="M83 155L80 149L96.5 153L124.5 45.5L127.5 51.5L99.5 159L83 155Z" fill="#4B4B81"/>
<path d="M140 134L137 129L185 108V91.5L188 96.5V113L140 134Z" fill="#4B4B81"/>
<path d="M134 89.5L131 84.5L169 100L164.5 101.9L134 89.5Z" fill="#4B4B81"/>
<path d="M137 129L131 116L169 100L131 84.5L137 71L185 91.5L185 108L137 129Z" fill="#BABAF6"/>
</svg>
